<svg width="46" height="54" viewBox="0 0 46 54" fill="none" xmlns="http://www.w3.org/2000/svg">
<path d="M30.1556 25.2963C30.1556 24.6148 29.7296 24.1037 29.1333 23.9333C29.0482 23.9333 29.0482 23.9333 28.963 23.9333C28.963 23.9333 28.963 23.9333 28.8778 23.9333C28.5371 23.9333 28.2815 24.1889 28.2815 24.5296V25.4667V25.8074V26.2334V26.6593V27.4259V27.8519V28.0222V28.6185V28.7037V28.8741V29.4704V29.5556C28.2815 29.5556 28.2815 29.6408 28.3667 29.6408L28.4519 29.7259C28.5371 29.7259 28.537 29.8111 28.6222 29.8111H28.7926C29.4741 29.7259 30.0704 29.1296 30.0704 28.4482C30.0704 27.6815 29.5593 27.0852 28.7926 27.0852V26.4037C29.5593 26.5741 30.1556 25.9778 30.1556 25.2963Z" fill="#0061AE"/>
<path d="M25.7259 23.8481C25.3852 23.8481 25.1296 24.1037 25.1296 24.4444V29.4704C25.1296 29.8111 25.3852 30.0667 25.7259 30.0667C26.0667 30.0667 26.3222 29.8111 26.3222 29.4704V24.4444C26.3222 24.1889 26.0667 23.8481 25.7259 23.8481Z" fill="#0061AE"/>
<g opacity="0.1">
<path d="M23 50C16.8667 50 11.0741 47.6148 6.72963 43.2704C2.47037 38.9259 0 33.1333 0 27C0 20.8667 2.38519 15.0741 6.72963 10.7296C11.0741 6.47037 16.8667 4 23 4C29.1333 4 34.9259 6.38519 39.2704 10.7296C48.2148 19.6741 48.2148 34.2407 39.2704 43.1852C34.9259 47.5296 29.1333 50 23 50ZM23 9.28148C18.2296 9.28148 13.8 11.1556 10.4778 14.4778C7.07037 17.8 5.1963 22.2296 5.1963 27C5.1963 31.7704 7.07037 36.2 10.3926 39.5222C13.7148 42.8444 18.2296 44.7185 22.9148 44.7185C27.6852 44.7185 32.1148 42.8444 35.437 39.5222C42.337 32.6222 42.337 21.2926 35.437 14.3926C32.2 11.0704 27.7704 9.28148 23 9.28148Z" fill="#0061AE"/>
</g>
<path d="M17.7185 26.7444H19.5074V26.3185C18.9963 26.2333 18.4852 26.0629 18.1444 25.7222C17.8889 26.0629 17.8037 26.4037 17.7185 26.7444Z" fill="#0061AE"/>
<path d="M19.5076 29.0444V28.1925C19.0816 28.2777 18.7409 28.3629 18.4854 28.6184C18.7409 28.7888 19.0816 28.9592 19.5076 29.0444Z" fill="#0061AE"/>
<path d="M18.1444 28.2777C18.4852 27.937 18.9963 27.7666 19.5074 27.6814V27.2555H17.7185C17.8037 27.5962 17.8889 27.937 18.1444 28.2777Z" fill="#0061AE"/>
<path d="M20.0186 24.9556V25.8074C20.4445 25.7222 20.7852 25.637 21.0408 25.3815C20.7 25.2111 20.3593 25.0408 20.0186 24.9556Z" fill="#0061AE"/>
<path d="M19.5076 25.8074V24.9556C19.0816 24.9556 18.7409 25.1259 18.4854 25.3815C18.7409 25.637 19.0816 25.8074 19.5076 25.8074Z" fill="#0061AE"/>
<path d="M28.7075 15.8407H17.2927C14.3112 15.8407 11.8408 18.3111 11.8408 21.2926V32.7074C11.8408 35.6888 14.3112 38.1592 17.2927 38.1592H28.7075C31.689 38.1592 34.1593 35.6888 34.1593 32.7074V21.2926C34.1593 18.3111 31.689 15.8407 28.7075 15.8407ZM21.9779 30.7481H15.3334C14.8223 30.7481 14.3964 30.3222 14.3964 29.8111V24.1888C14.3964 23.6777 14.8223 23.2518 15.3334 23.2518H21.8927V23.8481H16.8667C16.526 23.8481 16.2705 24.1037 16.2705 24.4444V29.4703C16.2705 29.8111 16.526 30.0666 16.8667 30.0666H21.8927L21.9779 30.7481ZM19.763 29.4703C18.4001 29.4703 17.2927 28.3629 17.2927 27C17.2927 25.637 18.4001 24.5296 19.763 24.5296C21.126 24.5296 22.3186 25.637 22.3186 27C22.2334 28.3629 21.126 29.4703 19.763 29.4703ZM29.9853 30.7481H28.8779H27.8556H27.6001H25.726H22.5742V30.1518C22.9149 30.1518 23.1705 29.8963 23.1705 29.5555V24.5296C23.1705 24.1888 22.9149 23.9333 22.5742 23.9333V23.337H25.726H28.2816H28.5371H28.963H29.8149C30.2408 23.337 30.6667 23.5074 31.0075 23.7629C31.4334 24.1037 31.689 24.5296 31.689 25.2111C31.689 25.2963 31.689 25.3814 31.689 25.5518C31.6038 26.1481 31.1779 26.6592 30.6667 26.9148C31.4334 27.1703 32.0297 27.937 32.0297 28.874C32.0297 29.8111 31.0927 30.7481 29.9853 30.7481Z" fill="#0061AE"/>
<path d="M20.0186 29.0444C20.4445 28.9592 20.7852 28.874 21.0408 28.6184C20.7852 28.3629 20.3593 28.1925 20.0186 28.1925V29.0444Z" fill="#0061AE"/>
<path d="M20.0186 26.3185V26.7444H21.8074C21.7223 26.4037 21.6371 25.9777 21.3815 25.7222C20.9556 26.0629 20.5297 26.2333 20.0186 26.3185Z" fill="#0061AE"/>
<path d="M20.0186 27.6814C20.5297 27.7666 21.0408 27.937 21.3815 28.2777C21.6371 28.0222 21.7223 27.6814 21.8074 27.2555H20.0186V27.6814Z" fill="#0061AE"/>
</svg>
