<svg width="32" height="32" viewBox="0 0 32 32" fill="none" xmlns="http://www.w3.org/2000/svg">
<path d="M19.1416 16.0731C19.1416 17.7678 17.7678 19.1416 16.0731 19.1416C14.3784 19.1416 13.0046 17.7678 13.0046 16.0731C13.0046 14.3784 14.3784 13.0046 16.0731 13.0046C17.7678 13.0046 19.1416 14.3784 19.1416 16.0731Z" fill="white"/>
<path d="M23.1556 10.5864C23.0085 10.1879 22.7739 9.82711 22.469 9.531C22.1729 9.22611 21.8123 8.99146 21.4135 8.84438C21.0901 8.71877 20.6042 8.56925 19.7093 8.52851C18.7412 8.48437 18.451 8.47485 16.0001 8.47485C13.549 8.47485 13.2588 8.48412 12.2909 8.52827C11.396 8.56925 10.9099 8.71877 10.5867 8.84438C10.1879 8.99146 9.82714 9.22611 9.53128 9.531C9.22638 9.82711 8.99174 10.1876 8.84441 10.5864C8.7188 10.9098 8.56928 11.396 8.52855 12.2909C8.4844 13.2587 8.47488 13.549 8.47488 16.0001C8.47488 18.4509 8.4844 18.7412 8.52855 19.7093C8.56928 20.6042 8.7188 21.0901 8.84441 21.4135C8.99174 21.8123 9.22614 22.1728 9.53103 22.4689C9.82714 22.7738 10.1876 23.0085 10.5864 23.1556C10.9099 23.2814 11.396 23.4309 12.2909 23.4717C13.2588 23.5158 13.5488 23.5251 15.9999 23.5251C18.4512 23.5251 18.7415 23.5158 19.7091 23.4717C20.604 23.4309 21.0901 23.2814 21.4135 23.1556C22.2141 22.8468 22.8468 22.214 23.1556 21.4135C23.2812 21.0901 23.4307 20.6042 23.4717 19.7093C23.5158 18.7412 23.5251 18.4509 23.5251 16.0001C23.5251 13.549 23.5158 13.2587 23.4717 12.2909C23.431 11.396 23.2814 10.9098 23.1556 10.5864ZM16.0001 20.7132C13.3968 20.7132 11.2865 18.6031 11.2865 15.9998C11.2865 13.3966 13.3968 11.2865 16.0001 11.2865C18.6032 11.2865 20.7135 13.3966 20.7135 15.9998C20.7135 18.6031 18.6032 20.7132 16.0001 20.7132ZM20.8999 12.2016C20.2915 12.2016 19.7983 11.7084 19.7983 11.1001C19.7983 10.4918 20.2915 9.99858 20.8999 9.99858C21.5082 9.99858 22.0014 10.4918 22.0014 11.1001C22.0011 11.7084 21.5082 12.2016 20.8999 12.2016Z" fill="white"/>
<path d="M16 0C7.16479 0 0 7.16479 0 16C0 24.8352 7.16479 32 16 32C24.8352 32 32 24.8352 32 16C32 7.16479 24.8352 0 16 0ZM25.1321 19.7878C25.0876 20.7659 24.9321 21.4336 24.7051 22.0181C24.2278 23.2522 23.2522 24.2278 22.0181 24.7051C21.4338 24.9321 20.7659 25.0874 19.7881 25.1321C18.8083 25.1768 18.4954 25.1875 16.0002 25.1875C13.5049 25.1875 13.1921 25.1768 12.2122 25.1321C11.2344 25.0874 10.5664 24.9321 9.98218 24.7051C9.3689 24.4744 8.81372 24.1128 8.35474 23.6453C7.88745 23.1865 7.52588 22.6311 7.29517 22.0181C7.06812 21.4338 6.9126 20.7659 6.86816 19.7881C6.823 18.8081 6.8125 18.4951 6.8125 16C6.8125 13.5049 6.823 13.1919 6.86792 12.2122C6.91235 11.2341 7.06763 10.5664 7.29468 9.98193C7.52539 9.3689 7.88721 8.81348 8.35474 8.35474C8.81348 7.88721 9.3689 7.52563 9.98193 7.29492C10.5664 7.06787 11.2341 6.9126 12.2122 6.86792C13.1919 6.82324 13.5049 6.8125 16 6.8125C18.4951 6.8125 18.8081 6.82324 19.7878 6.86816C20.7659 6.9126 21.4336 7.06787 22.0181 7.29468C22.6311 7.52539 23.1865 7.88721 23.6455 8.35474C24.1128 8.81372 24.4746 9.3689 24.7051 9.98193C24.9324 10.5664 25.0876 11.2341 25.1323 12.2122C25.177 13.1919 25.1875 13.5049 25.1875 16C25.1875 18.4951 25.177 18.8081 25.1321 19.7878Z" fill="white"/>
</svg>
