<svg width="32" height="32" viewBox="0 0 32 32" fill="none" xmlns="http://www.w3.org/2000/svg">
<g clip-path="url(#clip0_1_337)">
<path d="M16.3 7.90015C11.9 7.90015 8.40002 11.5001 8.40002 15.8001C8.40002 17.3001 8.80003 18.8001 9.60003 20.0001L9.80002 20.3001L9.00002 23.2001L12 22.4001L12.3 22.6001C13.5 23.3001 14.9 23.7001 16.3 23.7001C20.7 23.7001 24.2 20.1001 24.2 15.8001C24.2 13.7001 23.4 11.7001 21.9 10.2001C20.4 8.70015 18.4 7.90015 16.3 7.90015ZM21 19.2001C20.8 19.8001 19.8 20.3001 19.4 20.3001H17.9C17.6 20.2001 17.1 20.0001 16.5 19.8001C14.1 18.8001 12.6 16.4001 12.4 16.2001C12.3 16.0001 11.4 14.9001 11.4 13.7001C11.4 12.5001 12 12.0001 12.2 11.7001C12.4 11.5001 12.7 11.4001 12.8 11.4001H13.3C13.4 11.4001 13.6 11.4001 13.8 11.8001C14 12.3001 14.5 13.4001 14.5 13.6001V14.0001C14.5 14.2001 14.4 14.3001 14.3 14.4001L13.9 14.8001C13.8 14.9001 13.7 15.0001 13.8 15.3001C13.9 15.5001 14.4 16.3001 15.1 17.0001C16 17.8001 16.8 18.1001 17 18.2001C17.2 18.3001 17.4 18.2001 17.5 18.2001C17.6 18.0001 18.1 17.5001 18.3 17.3001C18.5 17.1001 18.6 17.1001 18.8 17.2001C19 17.2001 20.2 17.9001 20.4 18.0001C20.6 18.1001 20.8 18.2001 20.9 18.3001C20.9 18.3001 20.9 18.9001 20.8 19.4001L21 19.2001Z" fill="white"/>
<path d="M16 0.300049C7.2 0.300049 0 7.40005 0 16.2C0 25 7.1 32.1 15.9 32.1C24.7 32.1 31.8 25 31.8 16.2C31.8 7.40005 24.7 0.300049 16 0.300049ZM16.3 25.4C14.7 25.4 13.1 25 11.7 24.2001L6.6 25.5L8 20.6C7.2 19.2001 6.7 17.5 6.7 15.8C6.7 10.5 11 6.30005 16.2 6.30005C18.7 6.30005 21.1 7.30005 22.9 9.10005C24.7 10.9 25.7 13.3 25.7 15.8C25.7 21.1 21.4 25.3 16.2 25.3L16.3 25.4Z" fill="white"/>
</g>
<defs>
<clipPath id="clip0_1_337">
<rect width="32" height="32" fill="white"/>
</clipPath>
</defs>
</svg>
