<svg width="32" height="32" viewBox="0 0 32 32" fill="none" xmlns="http://www.w3.org/2000/svg">
<g clip-path="url(#clip0_1_334)">
<path d="M16.2 14.6001L11.6 8.1001H9.10001L14.8 16.1001L15.5 17.1001L20.4 23.9001H22.9L16.9 15.6001L16.2 14.6001Z" fill="white"/>
<path d="M16 0.199951C7.30001 0.199951 0.200012 7.29995 0.200012 16C0.200012 24.7 7.30001 31.7999 16 31.7999C24.7 31.7999 31.8 24.7 31.8 16C31.8 7.29995 24.7 0.199951 16 0.199951ZM19.7 25L14.8 18L8.60001 25H7.00001L14.1 17L7.00001 6.99995H12.4L17.1 13.6L23 6.99995H24.6L17.9 14.7L25.2 25.1H19.7V25Z" fill="white"/>
</g>
<defs>
<clipPath id="clip0_1_334">
<rect width="32" height="32" fill="white"/>
</clipPath>
</defs>
</svg>
